<svg width="193" height="49" fill="none" xmlns="http://www.w3.org/2000/svg"><path d="M84.674 44.795c.683-4.584 1.253-8.259 1.633-10.675.768-4.884 1.167-7.243 1.543-10.94.456-4.467.453-6.722.442-7.653-.083-7.018-1.272-8.922-2.383-10.02a8.182 8.182 0 0 0-3.44-2.05c-2.055-.612-3.887-.274-4.942-.08a12.81 12.81 0 0 0-3.177 1.026c-1.992 1.248-3.045 2.789-3.504 3.475-1.49 2.233-1.984 4.599-2.09 5.136-1.303 6.538-.23 13.4-.23 13.4.74 4.727 2.032 11.021 4.426 18.43l-9.19 1.371-3.177-24.14c-.307-2.616-.344-6.44 1.165-10.582.61-1.672 1.483-3.988 3.759-6.187 1.131-1.093 2.224-1.785 2.917-2.219C69.507 2.41 71.725 1.05 74.968.38c.654-.135 2.891-.559 5.817-.295 1.468.132 3.966.38 6.713 1.794 3.182 1.637 4.777 3.85 5.117 4.339 1.121 1.61 1.55 3.077 1.854 4.102.584 1.968.688 3.703.739 4.66.024.447.03.786.03.912.102 7.205-.081 12.256-.081 12.256a887.347 887.347 0 0 1-.865 18.146l-9.618-1.499Zm47.731 0c.683-4.584 1.253-8.259 1.633-10.675.768-4.884 1.167-7.243 1.544-10.94.455-4.467.452-6.722.441-7.653-.083-7.018-1.272-8.922-2.383-10.02a8.173 8.173 0 0 0-3.441-2.05c-2.054-.612-3.886-.274-4.941-.08a12.802 12.802 0 0 0-3.177 1.026c-1.993 1.248-3.045 2.789-3.504 3.475-1.491 2.233-1.984 4.599-2.09 5.136-1.303 6.538-.23 13.4-.23 13.4.74 4.727 2.032 11.021 4.426 18.43l-9.191 1.371-3.176-24.14c-.307-2.616-.344-6.44 1.165-10.582.61-1.672 1.483-3.988 3.759-6.187 1.131-1.093 2.224-1.785 2.917-2.219 1.082-.677 3.299-2.038 6.542-2.707.654-.135 2.891-.559 5.817-.295 1.467.132 3.966.38 6.713 1.794 3.182 1.637 4.777 3.85 5.117 4.339 1.121 1.61 1.549 3.077 1.853 4.102.585 1.968.688 3.703.74 4.66.024.447.029.786.031.912.101 7.205-.082 12.256-.082 12.256a887.66 887.66 0 0 1-.865 18.146l-9.618-1.499Z" fill="#FF6701"/><path d="M108.316 22.075a32.917 32.917 0 0 0-8.774.118l-.114-5.088a35.194 35.194 0 0 1 8.888 0v4.97ZM34.774 2.349h-.002c-.423.031-1.726.14-3.616.568-.728.164-1.634.396-2.665.727l-.114-.028s-3.739-.922-7.828-.84c-4.22.085-11.634.234-16.589 5.128-.744.736-3.145 3.151-3.794 6.784-.64 3.586.7 6.817 1.765 9.389a26.272 26.272 0 0 0 1.438 2.936l6.768-.806c-.52-1.604-2.316-7.591-.618-12.938.437-1.373 1.139-3.483 3.265-5.207a9.985 9.985 0 0 1 2.712-1.56c3.467-1.308 6.835-.295 7.877.06l-1.764 16.853 4.727.095c.24 4.265.57 7.803.85 10.398.49 4.524.387 2.096.972 6.864.447 3.652 2.205 7.73 2.205 7.73l9.266-.472s-2.443-4.222-3.839-9.112a35.96 35.96 0 0 1-1.186-6.432 32.032 32.032 0 0 1-.138-2.916 34.363 34.363 0 0 1 1.172-8.965l-6.453.84 2.382-15.72a15.614 15.614 0 0 1 4.488-.452l-1.281-2.924Z" fill="#FF6701"/><path d="M51.749 6.627c-2.866-2.537-6.02-3.3-8.022-3.793-3.677-.904-6.884-.751-8.953-.485l1.28 2.924c.874-.053 2.38-.043 4.09.518.381.125 1.588.543 2.804 1.425 2.228 1.618 3.059 3.69 3.578 5.04 2.024 5.256.596 11.322.175 12.948l.973.068h6.03c.321-.68.7-1.55 1.06-2.596.907-2.62 2.046-5.912 1.188-9.46-.87-3.596-3.414-5.89-4.203-6.589Z" fill="#FF6701"/></svg>